<?xml version="1.0" encoding="utf-8"?>
<!-- Svg Vector Icons : http://www.onlinewebfonts.com/icon -->
<!DOCTYPE svg PUBLIC "-//W3C//DTD SVG 1.1//EN" "http://www.w3.org/Graphics/SVG/1.1/DTD/svg11.dtd">
<svg version="1.1" xmlns="http://www.w3.org/2000/svg" xmlns:xlink="http://www.w3.org/1999/xlink" x="0px" y="0px" viewBox="0 0 256 256" enable-background="new 0 0 256 256" xml:space="preserve">
<metadata> Svg Vector Icons : http://www.onlinewebfonts.com/icon </metadata>
<g><g><path fill="#000000" d="M163.6,41.8v-15c0-4.1-3.3-7.5-7.5-7.5s-7.5,3.3-7.5,7.5v15H163.6z"/><path fill="#000000" d="M66.2,41.8v-15c0-4.1-3.3-7.5-7.5-7.5c-4.1,0-7.5,3.3-7.5,7.5v15H66.2z"/><path fill="#000000" d="M204.8,146.6c-22.7,0-41.2,18.5-41.2,41.2c0,22.7,18.5,41.2,41.2,41.2s41.2-18.5,41.2-41.2C246,165,227.5,146.6,204.8,146.6z M231.3,177.2l-28.7,29c-1.1,1.1-2.5,1.7-4,1.7c-1.5,0-2.9-0.6-4-1.7l-16.3-16.5c-2.2-2.2-2.2-5.8,0-7.9c2.2-2.2,5.8-2.2,7.9,0l12.3,12.4l24.7-25c2.2-2.2,5.7-2.2,7.9,0C233.4,171.4,233.5,175,231.3,177.2z"/><path fill="#000000" d="M148.6,187.8c0-31,25.2-56.2,56.2-56.2V56.8c0-8.3-6.7-15-15-15h-26.2v15c0,4.1-3.3,7.5-7.5,7.5s-7.5-3.3-7.5-7.5v-15H66.2v15c0,4.1-3.3,7.5-7.5,7.5c-4.1,0-7.5-3.3-7.5-7.5v-15H25c-8.3,0-15,6.7-15,15v164.8c0,8.3,6.7,15,15,15h152.2C160.1,227,148.6,208.7,148.6,187.8z M25,96c0-4.1,3.3-7.5,7.5-7.5h149.8c4.1,0,7.5,3.3,7.5,7.5c0,4.1-3.3,7.5-7.5,7.5H32.5C28.4,103.5,25,100.1,25,96z M107.9,206.5H43c-4.1,0-7.5-3.3-7.5-7.5c0-4.1,3.3-7.5,7.5-7.5h64.9c4.1,0,7.5,3.3,7.5,7.5C115.4,203.1,112,206.5,107.9,206.5z M107.9,161.5H43c-4.1,0-7.5-3.3-7.5-7.5c0-4.1,3.3-7.5,7.5-7.5h64.9c4.1,0,7.5,3.3,7.5,7.5C115.4,158.2,112,161.5,107.9,161.5z"/></g></g>
</svg>